<svg id="Layer_1" data-name="Layer 1" xmlns="http://www.w3.org/2000/svg" viewBox="0 0 500 500"><defs><style>.cls-1{fill:#0b0e15;}</style></defs><rect class="cls-1" x="122.88" y="109.09" width="22.67" height="333.5" rx="4" transform="translate(-15.34 8.01) rotate(-3.23)"/><rect class="cls-1" x="379.2" y="109.09" width="22.67" height="333.5" rx="4" transform="translate(13.92 -18.73) rotate(2.8)"/><rect class="cls-1" x="96.88" y="87.92" width="332" height="15" rx="7.5"/><rect class="cls-1" x="131.99" y="79.84" width="261.88" height="15" rx="7.5"/><rect class="cls-1" x="252.04" y="300.76" width="22.67" height="260.99" rx="4" transform="translate(-167.88 694.63) rotate(-90)"/><rect class="cls-1" x="196.88" y="133.75" width="5.33" height="265.33" rx="2" transform="translate(-14.71 11.68) rotate(-3.23)"/><rect class="cls-1" x="223.79" y="133.75" width="5.33" height="265.33" rx="2" transform="translate(-14.67 13.2) rotate(-3.23)"/><rect class="cls-1" x="295.33" y="133.84" width="5.33" height="265.33" rx="2" transform="translate(13.36 -14.22) rotate(2.8)"/><rect class="cls-1" x="350.58" y="133.75" width="5.33" height="265.33" rx="2" transform="translate(13.42 -16.92) rotate(2.8)"/><rect class="cls-1" x="322.95" y="133.75" width="5.33" height="265.33" rx="2" transform="translate(13.39 -15.57) rotate(2.8)"/><rect class="cls-1" x="260.71" y="133.84" width="5.33" height="265.33" rx="2"/><rect class="cls-1" x="168.55" y="134.75" width="5.33" height="265.33" rx="2" transform="translate(-14.81 10.08) rotate(-3.23)"/><path class="cls-1" d="M335.26,80.42c-4.29-4.64-29.51-31-70.67-31.78-43.21-.78-70.11,27.34-74.22,31.78h-21c3-4.21,36.26-48.84,95-48.33,57.51.49,89.77,43.82,93,48.33Z"/></svg>